<mxfile host="app.diagrams.net" modified="2024-01-22T14:28:46.972Z" agent="Mozilla/5.0 (Windows NT 10.0; Win64; x64) AppleWebKit/537.36 (KHTML, like Gecko) Chrome/120.0.0.0 Safari/537.36 Edg/120.0.0.0" etag="uDMaQIpM8DI0JxN7TAOP" version="22.1.21" type="github">
  <diagram name="Page-1" id="flXdw0ZDYopJzzMctq2Y">
    <mxGraphModel dx="1316" dy="661" grid="1" gridSize="10" guides="1" tooltips="1" connect="1" arrows="1" fold="1" page="1" pageScale="1" pageWidth="850" pageHeight="1100" background="none" math="0" shadow="0">
      <root>
        <mxCell id="0" />
        <mxCell id="1" parent="0" />
        <mxCell id="xSmLFiMG89OINPueHMhB-1" value="&lt;font style=&quot;font-size: 18px;&quot;&gt;&lt;b style=&quot;&quot;&gt;CSV to Report Cards&lt;/b&gt;&lt;/font&gt;" style="text;html=1;align=center;verticalAlign=middle;resizable=0;points=[];autosize=1;strokeColor=none;fillColor=none;" parent="1" vertex="1">
          <mxGeometry x="325" y="35" width="200" height="40" as="geometry" />
        </mxCell>
        <mxCell id="xSmLFiMG89OINPueHMhB-2" value="upload file in required format" style="whiteSpace=wrap;html=1;" parent="1" vertex="1">
          <mxGeometry x="35" y="120" width="120" height="60" as="geometry" />
        </mxCell>
        <mxCell id="xSmLFiMG89OINPueHMhB-3" value="" style="edgeStyle=none;orthogonalLoop=1;jettySize=auto;html=1;rounded=0;" parent="1" edge="1">
          <mxGeometry width="100" relative="1" as="geometry">
            <mxPoint x="155" y="149.5" as="sourcePoint" />
            <mxPoint x="255" y="149.5" as="targetPoint" />
            <Array as="points" />
          </mxGeometry>
        </mxCell>
        <mxCell id="xSmLFiMG89OINPueHMhB-4" value="extract data" style="whiteSpace=wrap;html=1;" parent="1" vertex="1">
          <mxGeometry x="255" y="120" width="120" height="60" as="geometry" />
        </mxCell>
        <mxCell id="xSmLFiMG89OINPueHMhB-6" value="" style="edgeStyle=none;orthogonalLoop=1;jettySize=auto;html=1;rounded=0;" parent="1" edge="1">
          <mxGeometry width="100" relative="1" as="geometry">
            <mxPoint x="375" y="149.5" as="sourcePoint" />
            <mxPoint x="475" y="149.5" as="targetPoint" />
            <Array as="points" />
          </mxGeometry>
        </mxCell>
        <mxCell id="xSmLFiMG89OINPueHMhB-7" value="form multiple pdfs based on data&amp;nbsp;" style="whiteSpace=wrap;html=1;" parent="1" vertex="1">
          <mxGeometry x="475" y="120" width="120" height="60" as="geometry" />
        </mxCell>
        <mxCell id="xSmLFiMG89OINPueHMhB-9" value="" style="edgeStyle=none;orthogonalLoop=1;jettySize=auto;html=1;rounded=0;" parent="1" edge="1">
          <mxGeometry width="100" relative="1" as="geometry">
            <mxPoint x="595" y="149.5" as="sourcePoint" />
            <mxPoint x="695" y="149.5" as="targetPoint" />
            <Array as="points" />
          </mxGeometry>
        </mxCell>
        <mxCell id="xSmLFiMG89OINPueHMhB-10" value="download pdfs and a merged pdf as zip file&amp;nbsp;" style="whiteSpace=wrap;html=1;" parent="1" vertex="1">
          <mxGeometry x="695" y="120" width="120" height="60" as="geometry" />
        </mxCell>
        <mxCell id="ikfDMRuxyZGmHwGliPjW-3" value="&lt;font style=&quot;font-size: 14px;&quot;&gt;&lt;br&gt;&lt;br&gt;- Read csv or&amp;nbsp; data/file&lt;br&gt;&lt;br&gt;- Read the first row to extract heading of csv&lt;br&gt;&lt;br&gt;- Run a loop :&lt;br&gt;&lt;span style=&quot;&quot;&gt;&lt;span style=&quot;&quot;&gt;&lt;span style=&quot;white-space: pre;&quot;&gt;&amp;nbsp;&amp;nbsp;&amp;nbsp;&amp;nbsp;&lt;/span&gt;&lt;/span&gt;1. read each row data from csv&lt;br&gt;&lt;span style=&quot;&quot;&gt;&lt;span style=&quot;white-space: pre;&quot;&gt;&amp;nbsp;&amp;nbsp;&amp;nbsp;&amp;nbsp;&lt;/span&gt;&lt;/span&gt;2. store data in dictionary in the format&lt;br&gt;&lt;/span&gt;&lt;span style=&quot;&quot;&gt;&lt;span style=&quot;white-space: pre;&quot;&gt;&amp;nbsp;&amp;nbsp;&amp;nbsp;&amp;nbsp;&lt;/span&gt;&lt;/span&gt;&lt;span style=&quot;&quot;&gt;&lt;span style=&quot;white-space: pre;&quot;&gt;&amp;nbsp;&amp;nbsp;&amp;nbsp;&amp;nbsp;&lt;/span&gt;&lt;/span&gt;{ Serial_no : [name, marks, attendance...],&lt;br&gt;&lt;span style=&quot;&quot;&gt;&lt;span style=&quot;white-space: pre;&quot;&gt;&amp;nbsp;&amp;nbsp;&amp;nbsp;&amp;nbsp;&lt;/span&gt;&lt;/span&gt;&lt;span style=&quot;&quot;&gt;&lt;span style=&quot;white-space: pre;&quot;&gt;&amp;nbsp;&amp;nbsp;&amp;nbsp;&amp;nbsp;&lt;/span&gt;&lt;/span&gt;.....&lt;span style=&quot;&quot;&gt;&lt;span style=&quot;white-space: pre;&quot;&gt;&amp;nbsp;&amp;nbsp;&amp;nbsp;&amp;nbsp;&lt;/span&gt;&lt;/span&gt;}&amp;nbsp;&lt;br&gt;&lt;br&gt;- iterate through dict:&lt;br&gt;&lt;span style=&quot;&quot;&gt;&lt;span style=&quot;white-space: pre;&quot;&gt;&amp;nbsp;&amp;nbsp;&amp;nbsp;&amp;nbsp;&lt;/span&gt;&lt;/span&gt;1. make pdf for each row based on data&lt;br&gt;&lt;span style=&quot;&quot;&gt;&lt;span style=&quot;white-space: pre;&quot;&gt;&amp;nbsp;&amp;nbsp;&amp;nbsp;&amp;nbsp;&lt;/span&gt;&lt;/span&gt;2. save it as &quot;data/&amp;lt;pdf_name&amp;gt;.pdf&quot;&lt;br&gt;&lt;span style=&quot;&quot;&gt;&lt;span style=&quot;white-space: pre;&quot;&gt;&amp;nbsp;&amp;nbsp;&amp;nbsp;&amp;nbsp;&lt;/span&gt;&lt;/span&gt;3. pdf_name = &quot;&amp;lt;Sno&amp;gt;, &amp;lt;student_name&amp;gt;&quot;&lt;br&gt;&lt;br&gt;- iterate through dict:&lt;br&gt;&lt;span style=&quot;white-space: pre;&quot;&gt;&#x9;&lt;/span&gt;1. zip all the files in &quot;data/..&quot;&lt;br&gt;&lt;br&gt;- make zip file downloadable&lt;br&gt;&lt;/font&gt;" style="text;html=1;align=left;verticalAlign=middle;resizable=0;points=[];autosize=1;strokeColor=none;fillColor=none;" vertex="1" parent="1">
          <mxGeometry x="265" y="170" width="320" height="370" as="geometry" />
        </mxCell>
      </root>
    </mxGraphModel>
  </diagram>
</mxfile>
